<svg width="10" height="10" viewBox="0 0 10 10" fill="none" xmlns="http://www.w3.org/2000/svg">
<path d="M1.86132 1.25H8.14617L4.99746 5.1875L1.86132 1.25ZM0.13299 1.00625C1.40253 2.625 3.74678 5.625 3.74678 5.625V9.375C3.74678 9.71875 4.0296 10 4.37526 10H5.63223C5.9779 10 6.26072 9.71875 6.26072 9.375V5.625C6.26072 5.625 8.59868 2.625 9.86822 1.00625C9.94025 0.913983 9.98478 0.803456 9.99674 0.687254C10.0087 0.571052 9.98761 0.453846 9.93586 0.348982C9.88412 0.244117 9.80381 0.155808 9.70407 0.0941103C9.60433 0.0324124 9.48918 -0.000195022 9.37172 8.77526e-07H0.629493C0.10785 8.77526e-07 -0.187538 0.593751 0.13299 1.00625Z" fill="white"/>
</svg>
