<svg width="17" height="17" viewBox="0 0 17 17" fill="none" xmlns="http://www.w3.org/2000/svg">
<path d="M12.7925 16.2846H13.9684C14.5634 16.2846 15.0521 15.8313 15.123 15.2505L16.2917 3.57712H12.75V0.708374H11.3546V3.57712H7.83421L8.04671 5.23462C9.25796 5.56754 10.3913 6.16962 11.0713 6.83546C12.0913 7.84129 12.7925 8.88254 12.7925 10.5825V16.2846ZM0.708374 15.5763V14.875H11.3546V15.5763C11.3546 15.9659 11.0359 16.2846 10.6392 16.2846H1.42379C1.02712 16.2846 0.708374 15.9659 0.708374 15.5763ZM11.3546 10.618C11.3546 4.95129 0.708374 4.95129 0.708374 10.618H11.3546ZM0.722541 12.0417H11.3475V13.4584H0.722541V12.0417Z" fill="white"/>
</svg>
