<svg width="51" height="55" viewBox="0 0 51 55" fill="none" xmlns="http://www.w3.org/2000/svg">
<path d="M13.4723 37.5006C14.8201 37.5006 15.9127 36.3223 15.9127 34.8688V19.5435C15.9127 14.3783 19.8093 10.176 24.5989 10.176C29.3884 10.176 33.2852 14.3782 33.2852 19.5435V28.457C33.2852 29.9105 34.3778 31.0889 35.7256 31.0889C37.0734 31.0889 38.166 29.9105 38.166 28.457V19.5435C38.166 11.4758 32.0799 4.91229 24.5989 4.91229C17.118 4.91229 11.0318 11.4758 11.0318 19.5435V34.8688C11.0318 36.3223 12.1244 37.5006 13.4723 37.5006Z" fill="#B1B4B5"/>
<path d="M9.75024 53.438H39.4476C42.2202 53.438 44.4679 51.014 44.4679 48.0239V29.5078C44.4679 26.5177 42.2202 24.0938 39.4476 24.0938H9.75024C6.97761 24.0938 4.72993 26.5177 4.72993 29.5078V48.0238C4.72993 51.014 6.97761 53.438 9.75024 53.438Z" fill="#FFB636"/>
<path d="M40.1116 49.0748H40.3631C41.1553 49.0748 41.7975 48.3822 41.7975 47.5279V30.004C41.7975 29.1496 41.1553 28.4571 40.3631 28.4571H40.1116C39.3194 28.4571 38.6772 29.1496 38.6772 30.004V47.5279C38.6772 48.3822 39.3194 49.0748 40.1116 49.0748Z" fill="#FFD469"/>
</svg>
